<svg width="22" height="22" viewBox="0 0 22 22" fill="none" xmlns="http://www.w3.org/2000/svg">
<path fill-rule="evenodd" clip-rule="evenodd" d="M10.9971 0H11.0029C17.0679 0 22 4.93486 22 11C22 17.065 17.068 22 11.0029 22C8.76562 22 6.69077 21.3345 4.95159 20.1822L0.723334 21.5336L2.09403 17.4475C0.775383 15.6367 0 13.4063 0 11C0 4.93339 4.93204 0 10.9971 0ZM15.2445 17.0857C16.0844 16.9039 17.1377 16.2826 17.4031 15.533C17.6685 14.7824 17.6685 14.1429 17.5915 14.007C17.5294 13.8991 17.3825 13.8283 17.1634 13.7229C17.1061 13.6953 17.0438 13.6653 16.9768 13.6316C16.6536 13.4708 15.082 12.6938 14.7851 12.5906C14.4935 12.4807 14.2158 12.5193 13.9958 12.8301C13.9553 12.8868 13.9149 12.9437 13.8747 13.0002C13.6079 13.3754 13.3502 13.7377 13.1363 13.9684C12.9426 14.1746 12.6264 14.201 12.361 14.0909C12.3321 14.0788 12.2989 14.0654 12.2618 14.0504C11.8415 13.8806 10.9097 13.5042 9.78133 12.4999C8.82993 11.6528 8.18381 10.5984 7.99687 10.2822C7.81323 9.96493 7.97156 9.77884 8.11781 9.60693C8.12054 9.60372 8.12328 9.6005 8.126 9.5973C8.21997 9.48103 8.31128 9.38413 8.40305 9.28672C8.46958 9.21611 8.53636 9.14524 8.60458 9.06654C8.6144 9.05523 8.62396 9.04425 8.63327 9.03355C8.77787 8.86738 8.8637 8.76876 8.96072 8.56194C9.07062 8.34888 8.99248 8.12906 8.91406 7.96676C8.85978 7.85261 8.52437 7.03867 8.23773 6.34307C8.11663 6.04918 8.00423 5.77642 7.92541 5.58648C7.7121 5.07632 7.55001 5.05724 7.22693 5.04336C7.21948 5.04298 7.21197 5.0426 7.20441 5.04221C7.10011 5.03692 6.98523 5.03108 6.85825 5.03108C6.43748 5.03108 5.99878 5.15457 5.73365 5.4257C5.7246 5.43493 5.71518 5.4445 5.70541 5.45443C5.36614 5.79908 4.60887 6.56837 4.60887 8.10263C4.60887 9.64012 5.70024 11.1276 5.901 11.4012C5.90639 11.4085 5.91113 11.415 5.9152 11.4206C5.92727 11.4364 5.94999 11.4693 5.98304 11.5172C6.39373 12.1122 8.39975 15.0184 11.3918 16.2578C13.9188 17.3057 14.6694 17.2078 15.2445 17.0857Z" fill="#555555"/>
</svg>
