<svg width="320" height="44" viewBox="0 0 320 44" fill="none" xmlns="http://www.w3.org/2000/svg">
<path fill-rule="evenodd" clip-rule="evenodd" d="M130.864 0H105.99C99.4114 0 94.0591 6.20743 94.0591 13.3917C94.0591 20.5759 99.4114 26.7833 105.99 26.7833H130.864C137.442 26.7833 142.795 20.5759 142.795 13.3917C142.795 6.20743 137.442 0 130.864 0ZM108.197 9.67351H128.646C130.523 9.67351 132.058 11.3435 132.058 13.3917C132.058 15.4398 130.523 17.1098 128.646 17.1098H108.197C106.32 17.1098 104.785 15.4398 104.785 13.3917C104.785 11.3435 106.32 9.67351 108.197 9.67351Z" fill="#0D336C"/>
<path fill-rule="evenodd" clip-rule="evenodd" d="M33.0625 9.29594H10.7685V12.2684H33.0519C34.0115 12.2684 34.5552 11.7117 34.5552 10.7769C34.5552 9.84211 34.0115 9.28544 33.0519 9.28544L33.0625 9.29594ZM10.7685 26.4058H0V0.368164H35.7813C41.7413 0.368164 45.3237 5.57779 45.3237 10.7874C45.3237 15.997 41.7413 21.2066 35.7813 21.2066H10.7685V26.4163V26.4058Z" fill="#0D336C"/>
<path fill-rule="evenodd" clip-rule="evenodd" d="M80.0825 9.29594H57.7885V12.2684H57.8204L69.7298 21.1961H57.7778V26.4058H47.0093V0.368164H82.7906C88.7506 0.368164 92.333 5.57779 92.333 10.7874C92.333 15.2933 89.4649 19.7887 84.9016 20.9441L92.3436 26.4163H80.9461L62.0959 12.2789H80.0718C81.0314 12.2789 81.5751 11.7222 81.5751 10.7874C81.5751 9.85262 81.0314 9.29594 80.0718 9.29594H80.0825Z" fill="#0D336C"/>
<path fill-rule="evenodd" clip-rule="evenodd" d="M161.933 26.4058V9.29595H144.692V0.368164H190.016V9.29595H172.712V26.4058H161.933Z" fill="#0D336C"/>
<path fill-rule="evenodd" clip-rule="evenodd" d="M237.057 0.368164H192.757V26.4058H237.057V19.7152H203.526V16.7428H237.057V10.0417H203.526V7.06925H237.057V0.368164Z" fill="#0D336C"/>
<path fill-rule="evenodd" clip-rule="evenodd" d="M239.775 0.368164H250.543V14.5791L258.487 20.5555L250.853 26.4058H239.775V0.368164Z" fill="#0D336C"/>
<path d="M254.766 14.1268L271.665 0.787598H285.92L268.936 14.1268L285.92 26.7937H271.665L254.766 14.1268Z" fill="#0D336C"/>
<path d="M283.191 14.137L300.09 0.797852H314.345L297.361 14.137L314.345 26.804H300.09L283.191 14.137Z" fill="#C00D0D"/>
<path d="M0.660645 32.5078L14.7237 42.78H142.794V32.5078H0.660645Z" fill="#0D336C"/>
<path d="M173.725 37.5381C174.44 37.9162 174.909 38.5884 174.909 39.7963C174.909 42.2331 172.968 42.7582 170.25 42.7582H161.965V32.6016H170.25C172.83 32.6016 174.685 33.1267 174.685 35.4374C174.685 36.4878 174.333 37.1495 173.725 37.5486V37.5381ZM165.729 36.6978H169.557C170.378 36.6978 170.889 36.5403 170.889 35.7315C170.889 34.9228 170.356 34.7442 169.557 34.7442H165.729V36.6978ZM165.729 38.4519V40.4895H169.61C170.367 40.4895 170.996 40.29 170.996 39.4392C170.996 38.5884 170.442 38.4519 169.61 38.4519H165.729Z" fill="#C00D0D"/>
<path d="M180.164 35.3849H175.579V32.6016H188.747V35.3849H184.184V42.7582H180.175V35.3849H180.164Z" fill="#C00D0D"/>
<path d="M189.344 37.6643C189.344 33.8936 190.453 32.3286 195.806 32.3286C201.158 32.3286 202.288 33.8831 202.288 37.6643C202.288 41.4455 201.201 42.9999 195.806 42.9999C190.411 42.9999 189.344 41.4665 189.344 37.6643ZM193.002 37.6643C193.002 39.4393 193.407 40.122 195.806 40.122C198.205 40.122 198.61 39.4393 198.61 37.6643C198.61 35.8892 198.205 35.2275 195.806 35.2275C193.407 35.2275 193.002 35.8892 193.002 37.6643Z" fill="#C00D0D"/>
<path d="M209.527 40.5008C210.241 40.5008 210.732 40.2802 210.732 39.5135C210.732 38.7467 210.305 38.5892 209.527 38.5892H206.766V36.6356H209.442C210.199 36.6356 210.625 36.478 210.625 35.7533C210.625 35.0286 210.135 34.85 209.442 34.85H203.45V32.5918H209.889C212.47 32.5918 214.325 33.096 214.325 35.4277C214.325 36.478 213.973 37.1187 213.365 37.5178C214.101 37.917 214.57 38.5892 214.57 39.797C214.57 42.2548 212.608 42.759 209.889 42.759H203.45V40.5008H209.527Z" fill="#0D336C"/>
<path d="M217.439 35.1434V32.6016H221.874C226.64 32.6016 228.176 33.8515 228.176 36.7083V42.7687H219.625C216.778 42.7687 215.968 41.8234 215.968 39.5442C215.968 37.265 216.767 36.6033 219.625 36.6033H224.593V36.5193C224.593 35.553 224.145 35.1539 221.715 35.1539H217.439V35.1434ZM224.593 40.437V38.5464H220.446C219.689 38.5464 219.444 38.767 219.444 39.4497C219.444 40.1744 219.689 40.437 220.446 40.437H224.593Z" fill="#0D336C"/>
<path d="M239.892 35.7525H234.54V42.7582H230.531V32.6016H243.879V42.7582H239.892V35.7525Z" fill="#0D336C"/>
<path d="M259.19 32.6023V42.759H255.203V39.8811H251.588C247.174 39.8811 245.682 38.6312 245.682 35.7953V32.5918H249.563V35.7113C249.563 36.6776 249.946 37.1187 251.482 37.1187H255.203V32.6023H259.19Z" fill="#0D336C"/>
<path d="M262.646 35.1434V32.6016H267.081C271.847 32.6016 273.382 33.8515 273.382 36.7083V42.7687H264.831C261.985 42.7687 261.174 41.8234 261.174 39.5442C261.174 37.265 261.974 36.6033 264.831 36.6033H269.8V36.5193C269.8 35.553 269.352 35.1539 266.921 35.1539H262.646V35.1434ZM269.789 40.437V38.5464H265.642C264.885 38.5464 264.639 38.767 264.639 39.4497C264.639 40.1744 264.885 40.437 265.642 40.437H269.789Z" fill="#0D336C"/>
<path d="M286.218 39.818V42.759H280.919C276.505 42.759 275.13 41.4671 275.13 37.6649C275.13 33.8627 276.516 32.5918 280.919 32.5918H286.218V35.5327H280.844C279.373 35.5327 278.925 36.0579 278.925 37.6649C278.925 39.2719 279.373 39.818 280.844 39.818H286.218Z" fill="#0D336C"/>
<path d="M291.678 35.3849H287.094V32.6016H300.261V35.3849H295.698V42.7582H291.689V35.3849H291.678Z" fill="#0D336C"/>
<path d="M305.623 39.0506L311.061 32.6016H315.336V42.7582H311.349V36.4142L305.911 42.7582H301.615V32.6016H305.623V39.0506Z" fill="#0D336C"/>
<path d="M153.297 32.6021H148.872V35.1438H153.147C155.578 35.1438 156.026 35.543 156.026 36.5093V36.5933H151.058C148.211 36.5933 147.401 37.276 147.401 39.5342C147.401 41.7924 148.2 42.7587 151.058 42.7587H159.609V36.6983C159.609 33.8414 158.073 32.5916 153.307 32.5916L153.297 32.6021ZM156.015 40.4375H151.868C151.111 40.4375 150.866 40.1749 150.866 39.4502C150.866 38.7675 151.111 38.5469 151.868 38.5469H156.015V40.4375Z" fill="#C00D0D"/>
</svg>
